<svg xmlns="http://www.w3.org/2000/svg" viewBox="0 0 512 512" fill="none">
<defs><linearGradient id="bg" x1="64" y1="64" x2="448" y2="448" gradientUnits="userSpaceOnUse"><stop offset="0% " stop-color="#111827"/><stop offset="100%" stop-color="#7c2d12"/></linearGradient></defs>
<rect width="512" height="512" rx="96" fill="#0b1220"/>

<circle cx="256" cy="256" r="188" fill="url(#bg)"/>
<circle cx="256" cy="256" r="188" stroke="#ffffff22" stroke-width="16"/>
<circle cx="256" cy="256" r="146" fill="#050914" fill-opacity=".28"/>

<path d="M148 330c24-100 82-152 108-168l14 32 58-54c42 28 76 86 84 190-28-18-58-30-86-34-30 18-84 30-178 34Z" fill="#e7e5e4"/>
<path d="M188 322c18-64 58-106 86-126l12 26 34-34c26 28 48 66 56 126-26-12-52-18-78-18-26 12-58 20-110 26Z" fill="#111827"/>

<ellipse cx="232" cy="236" rx="18" ry="10" fill="#fb7185"/>
<ellipse cx="294" cy="236" rx="18" ry="10" fill="#fb7185"/>



<circle cx="256" cy="256" r="210" stroke="#fb7185" stroke-opacity=".45" stroke-width="18"/>
<path d="M146 126 198 162 256 104 314 162 366 126 344 196H168l-22-70Z" fill="#fb7185" fill-opacity=".92"/>
</svg>