<svg xmlns="http://www.w3.org/2000/svg" viewBox="0 0 512 512" fill="none">
<defs><linearGradient id="bg" x1="64" y1="64" x2="448" y2="448" gradientUnits="userSpaceOnUse"><stop offset="0% " stop-color="#111827"/><stop offset="100%" stop-color="#991b1b"/></linearGradient></defs>
<rect width="512" height="512" rx="96" fill="#0b1220"/>

<circle cx="256" cy="256" r="188" fill="url(#bg)"/>
<circle cx="256" cy="256" r="188" stroke="#ffffff22" stroke-width="16"/>
<circle cx="256" cy="256" r="146" fill="#050914" fill-opacity=".28"/>

<path d="M184 188c0-24 20-44 44-44s44 20 44 44-20 44-44 44-44-20-44-44Zm100 136c0-24 20-44 44-44s44 20 44 44-20 44-44 44-44-20-44-44Z" stroke="#e5e7eb" stroke-width="22"/>
<path d="M228 220 328 292" stroke="#fca5a5" stroke-width="22" stroke-linecap="round"/>



<circle cx="256" cy="256" r="210" stroke="#fca5a5" stroke-opacity=".45" stroke-width="18"/>
<path d="M146 126 198 162 256 104 314 162 366 126 344 196H168l-22-70Z" fill="#fca5a5" fill-opacity=".92"/>
</svg>