<svg xmlns="http://www.w3.org/2000/svg" viewBox="0 0 512 512" fill="none">
<defs><linearGradient id="bg" x1="64" y1="64" x2="448" y2="448" gradientUnits="userSpaceOnUse"><stop offset="0% " stop-color="#0f172a"/><stop offset="100%" stop-color="#1d4ed8"/></linearGradient></defs>
<rect width="512" height="512" rx="96" fill="#0b1220"/>

<circle cx="256" cy="256" r="188" fill="url(#bg)"/>
<circle cx="256" cy="256" r="188" stroke="#ffffff22" stroke-width="16"/>
<circle cx="256" cy="256" r="146" fill="#050914" fill-opacity=".28"/>

<rect x="176" y="136" width="160" height="240" rx="42" fill="#dbeafe"/>
<rect x="200" y="162" width="112" height="188" rx="30" fill="#93c5fd"/>
<path d="M228 188c28 14 56 14 84 0M228 324c28-14 56-14 84 0" stroke="#eff6ff" stroke-width="18" stroke-linecap="round"/>



<circle cx="256" cy="256" r="210" stroke="#93c5fd" stroke-opacity=".45" stroke-width="18"/>
<path d="M146 126 198 162 256 104 314 162 366 126 344 196H168l-22-70Z" fill="#93c5fd" fill-opacity=".92"/>
</svg>