<svg xmlns="http://www.w3.org/2000/svg" viewBox="0 0 512 512" fill="none">
<defs><linearGradient id="bg" x1="64" y1="64" x2="448" y2="448" gradientUnits="userSpaceOnUse"><stop offset="0% " stop-color="#14532d"/><stop offset="100%" stop-color="#134e4a"/></linearGradient></defs>
<rect width="512" height="512" rx="96" fill="#0b1220"/>

<circle cx="256" cy="256" r="188" fill="url(#bg)"/>
<circle cx="256" cy="256" r="188" stroke="#ffffff22" stroke-width="16"/>
<circle cx="256" cy="256" r="146" fill="#050914" fill-opacity=".28"/>

<path d="M154 312c30-90 72-138 102-156 24 18 72 70 102 156-34-14-66-18-102-14-36-4-68 0-102 14Z" fill="#dcfce7"/>
<path d="M184 318c20 14 44 20 72 18 28 2 52-4 72-18" stroke="#4ade80" stroke-width="20" stroke-linecap="round"/>

<ellipse cx="230" cy="230" rx="18" ry="10" fill="#14532d"/>
<ellipse cx="282" cy="230" rx="18" ry="10" fill="#14532d"/>



<circle cx="256" cy="256" r="210" stroke="#86efac" stroke-opacity=".45" stroke-width="18"/>
<path d="M146 126 198 162 256 104 314 162 366 126 344 196H168l-22-70Z" fill="#86efac" fill-opacity=".92"/>
</svg>