<svg xmlns="http://www.w3.org/2000/svg" viewBox="0 0 256 256"><defs><linearGradient id="g" x1="0" y1="0" x2="1" y2="1"><stop stop-color="#eef6ff"/><stop offset="1" stop-color="#9fb9ff"/></linearGradient></defs><path fill="#9eb2ff" opacity=".14" d="M32 132l46-58h100l46 58-30 58H62z"/><path fill="url(#g)" d="M53 138l38-44h74l38 44-25 44H78z"/><path fill="#1a2746" d="M77 138l25-28h52l25 28-15 28H92z"/><path fill="#f8fbff" d="M70 144l-16 10 10 12 18-8zm116 0l16 10-10 12-18-8z"/><circle cx="106" cy="131" r="6" fill="#8ce6ff"/><circle cx="150" cy="131" r="6" fill="#8ce6ff"/><rect x="112" y="144" width="32" height="18" rx="8" fill="#d9e7ff"/></svg>