<svg xmlns="http://www.w3.org/2000/svg" viewBox="0 0 256 256"><defs><linearGradient id="g" x1="0" y1="0" x2="1" y2="1"><stop stop-color="#f3fbff"/><stop offset="1" stop-color="#85caff"/></linearGradient></defs><path fill="#9cc3ff" opacity=".16" d="M58 72c25-29 99-34 134 0 27 27 24 72-10 104-37 34-105 36-140 6 28-2 58-14 76-32-34-7-62-36-60-78z"/><path fill="url(#g)" d="M74 89c21-24 83-28 113 0 21 20 18 50-6 73-26 24-78 27-104 7 23-1 47-11 62-24-29-6-52-28-49-56z"/><circle cx="159" cy="104" r="6" fill="#7ff0ff"/><circle cx="182" cy="110" r="5" fill="#7ff0ff"/><path fill="#16345e" d="M113 126c15 21 44 31 69 30-18 16-46 23-68 18-18-4-36-17-40-34 14 2 26 0 39-14z"/><path fill="#f8fbff" d="M182 120l17 5-13 8z"/></svg>