<svg xmlns="http://www.w3.org/2000/svg" viewBox="0 0 512 512" fill="none">
<defs><linearGradient id="bg" x1="64" y1="64" x2="448" y2="448" gradientUnits="userSpaceOnUse"><stop offset="0% " stop-color="#7c3aed"/><stop offset="100%" stop-color="#ec4899"/></linearGradient></defs>
<rect width="512" height="512" rx="96" fill="#0b1220"/>

<circle cx="256" cy="256" r="188" fill="url(#bg)"/>
<circle cx="256" cy="256" r="188" stroke="#ffffff22" stroke-width="16"/>
<circle cx="256" cy="256" r="146" fill="#050914" fill-opacity=".28"/>

<circle cx="256" cy="236" r="88" fill="#f5d0fe" fill-opacity=".92"/>
<path d="M210 300c16-26 32-38 46-40-8 30-6 50 8 70-22-6-40-16-54-30Z" fill="#f0abfc"/>
<path d="M300 296c-16-24-24-38-26-52 24 16 42 22 64 22-12 18-24 28-38 30Z" fill="#f9a8d4"/>

<ellipse cx="230" cy="232" rx="18" ry="10" fill="#312e81"/>
<ellipse cx="282" cy="232" rx="18" ry="10" fill="#312e81"/>


</svg>