<svg xmlns="http://www.w3.org/2000/svg" viewBox="0 0 256 256"><defs><radialGradient id="g" cx="50%" cy="45%" r="55%"><stop stop-color="#ffffff"/><stop offset="1" stop-color="#98a8ff"/></radialGradient></defs><path fill="#8fa3ff" opacity=".18" d="M128 32c43 0 78 35 78 78 0 61-47 100-78 114-31-14-78-53-78-114 0-43 35-78 78-78z"/><path fill="url(#g)" d="M128 49c34 0 61 27 61 61 0 48-37 79-61 93-24-14-61-45-61-93 0-34 27-61 61-61z"/><path fill="#eff5ff" opacity=".75" d="M93 133c15 7 23 18 35 34 12-16 20-27 35-34-5 27-21 48-35 61-14-13-30-34-35-61z"/><circle cx="108" cy="106" r="6" fill="#d5f3ff"/><circle cx="148" cy="106" r="6" fill="#d5f3ff"/><path fill="#f7fbff" d="M128 118l13 10-13 10-13-10z"/></svg>