<svg xmlns="http://www.w3.org/2000/svg" viewBox="0 0 128 128" fill="none">
  <defs><linearGradient id="g" x1="0" x2="1"><stop stop-color="#f2f7ff"/><stop offset="1" stop-color="#85b7ff"/></linearGradient></defs>
  <path d="M63 20c18 8 27 24 25 41-2 14-12 19-12 30 0 5 3 10 10 17-11 0-20-3-27-9-8 6-16 9-27 9 7-7 10-12 10-17 0-11-10-16-12-30-2-17 7-33 23-41 3 7 6 10 10 10s7-3 10-10Z" stroke="url(#g)" stroke-width="7" stroke-linejoin="round"/>
  <circle cx="54" cy="55" r="4" fill="#8cc0ff"/>
  <circle cx="74" cy="55" r="4" fill="#8cc0ff"/>
  <path d="M54 73c6 4 14 4 20 0" stroke="url(#g)" stroke-width="5" stroke-linecap="round"/>
</svg>
