<svg xmlns="http://www.w3.org/2000/svg" viewBox="0 0 256 256">
<defs><linearGradient id="g" x1="0" y1="0" x2="1" y2="1"><stop stop-color="#d7e8ff"/><stop offset="1" stop-color="#7fb0ff"/></linearGradient></defs>
<g fill="none" stroke="none"><path d="M128 26l28 30 36-4-8 32 30 26-32 10-12 34-42-14-42 14-12-34-32-10 30-26-8-32 36 4z" fill="url(#g)" opacity=".12"/>
<path fill="#e9f2ff" d="M73 158l13-58 20-34 22 21 22-21 20 34 13 58-33-15-22 13-22-13z"/>
<path fill="#92bfff" d="M108 96l20 15 20-15-20-25z"/><path fill="#0e1730" d="M105 117l23 18 23-18-6 28-17 11-17-11z"/>
<circle cx="108" cy="112" r="6" fill="#86e3ff"/><circle cx="148" cy="112" r="6" fill="#86e3ff"/><path d="M118 129h20l-10 10z" fill="#fff"/></g></svg>