<svg xmlns="http://www.w3.org/2000/svg" viewBox="0 0 512 512" fill="none">
<defs><linearGradient id="bg" x1="64" y1="64" x2="448" y2="448" gradientUnits="userSpaceOnUse"><stop offset="0% " stop-color="#1f2937"/><stop offset="100%" stop-color="#7c2d12"/></linearGradient></defs>
<rect width="512" height="512" rx="96" fill="#0b1220"/>

<circle cx="256" cy="256" r="188" fill="url(#bg)"/>
<circle cx="256" cy="256" r="188" stroke="#ffffff22" stroke-width="16"/>
<circle cx="256" cy="256" r="146" fill="#050914" fill-opacity=".28"/>

<path d="M168 340c24-94 74-154 88-172 16 16 68 80 88 172H168Z" fill="#fafaf9"/>
<path d="M202 320c12-56 30-98 54-128 24 30 42 72 54 128H202Z" fill="#44403c"/>
<path d="M216 156c0-18 14-32 32-32s32 14 32 32-14 32-32 32-32-14-32-32Z" fill="#fafaf9"/>

<ellipse cx="232" cy="244" rx="18" ry="10" fill="#fca5a5"/>
<ellipse cx="280" cy="244" rx="18" ry="10" fill="#fca5a5"/>


<path d="M156 124 204 154 256 108 308 154 356 124 336 188H176l-20-64Z" fill="#fca5a5" fill-opacity=".95"/></svg>