<svg xmlns="http://www.w3.org/2000/svg" viewBox="0 0 512 512" fill="none">
<defs><linearGradient id="bg" x1="64" y1="64" x2="448" y2="448" gradientUnits="userSpaceOnUse"><stop offset="0% " stop-color="#111827"/><stop offset="100%" stop-color="#1f2937"/></linearGradient></defs>
<rect width="512" height="512" rx="96" fill="#0b1220"/>

<circle cx="256" cy="256" r="188" fill="url(#bg)"/>
<circle cx="256" cy="256" r="188" stroke="#ffffff22" stroke-width="16"/>
<circle cx="256" cy="256" r="146" fill="#050914" fill-opacity=".28"/>

<path d="M140 312c50-110 144-162 242-154-26 20-48 48-64 80 18 16 38 34 54 58-92 8-166 16-232 16Z" fill="#111827" stroke="#6b7280" stroke-width="16" stroke-linejoin="round"/>
<path d="M226 232c26-10 54-12 90-8-16 22-26 44-32 72-18-14-36-32-58-64Z" fill="#cbd5e1"/>
<circle cx="316" cy="214" r="14" fill="#94a3b8"/>


<path d="M156 124 204 154 256 108 308 154 356 124 336 188H176l-20-64Z" fill="#93c5fd" fill-opacity=".95"/></svg>